<svg width="26" height="26" viewBox="0 0 26 26" fill="none" xmlns="http://www.w3.org/2000/svg">
<path d="M23.8334 13C23.8334 13 18.9822 19.5 13.0001 19.5C7.01791 19.5 2.16675 13 2.16675 13C2.16675 13 7.01791 6.5 13.0001 6.5C18.9822 6.5 23.8334 13 23.8334 13Z" stroke="#7F8DB2" stroke-width="1.5" stroke-miterlimit="10" stroke-linecap="round" stroke-linejoin="round"/>
<path d="M15.2981 15.2981C14.6886 15.9076 13.862 16.25 13 16.25C12.138 16.25 11.3114 15.9076 10.7019 15.2981C10.0924 14.6886 9.75 13.862 9.75 13C9.75 12.138 10.0924 11.3114 10.7019 10.7019C11.3114 10.0924 12.138 9.75 13 9.75C13.862 9.75 14.6886 10.0924 15.2981 10.7019C15.9076 11.3114 16.25 12.138 16.25 13C16.25 13.862 15.9076 14.6886 15.2981 15.2981Z" stroke="#7F8DB2" stroke-width="1.5" stroke-miterlimit="10" stroke-linecap="round" stroke-linejoin="round"/>
<path d="M23.8327 13C23.8327 13 18.9815 19.5 12.9993 19.5C7.01718 19.5 2.16602 13 2.16602 13C2.16602 13 7.01718 6.5 12.9993 6.5C18.9815 6.5 23.8327 13 23.8327 13Z" stroke="#7F8DB2" stroke-width="1.5" stroke-miterlimit="10" stroke-linecap="round" stroke-linejoin="round"/>
<path d="M15.2974 15.2981C14.6879 15.9076 13.8612 16.25 12.9993 16.25C12.1373 16.25 11.3107 15.9076 10.7012 15.2981C10.0917 14.6886 9.74927 13.862 9.74927 13C9.74927 12.138 10.0917 11.3114 10.7012 10.7019C11.3107 10.0924 12.1373 9.75 12.9993 9.75C13.8612 9.75 14.6879 10.0924 15.2974 10.7019C15.9069 11.3114 16.2493 12.138 16.2493 13C16.2493 13.862 15.9069 14.6886 15.2974 15.2981Z" stroke="#7F8DB2" stroke-width="1.5" stroke-miterlimit="10" stroke-linecap="round" stroke-linejoin="round"/>
</svg>
