<svg width="30" height="30" viewBox="0 0 30 30" fill="none" xmlns="http://www.w3.org/2000/svg">
<path d="M10 12.5V8.75C10 5.9875 12.2375 3.75 15 3.75C17.7625 3.75 20 5.9875 20 8.75V12.5M15 18.75C15.3315 18.75 15.6495 18.6183 15.8839 18.3839C16.1183 18.1495 16.25 17.8315 16.25 17.5C16.25 17.1685 16.1183 16.8505 15.8839 16.6161C15.6495 16.3817 15.3315 16.25 15 16.25C14.6685 16.25 14.3505 16.3817 14.1161 16.6161C13.8817 16.8505 13.75 17.1685 13.75 17.5C13.75 17.8315 13.8817 18.1495 14.1161 18.3839C14.3505 18.6183 14.6685 18.75 15 18.75ZM15 18.75V22.5M8.25 12.5H21.75C22.85 12.5 23.75 13.4 23.75 14.5V23.25C23.75 24.9 22.4 26.25 20.75 26.25H9.25C7.6 26.25 6.25 24.9 6.25 23.25V14.5C6.25 13.4 7.15 12.5 8.25 12.5Z" stroke="#7F8DB2" stroke-width="1.5" stroke-miterlimit="10" stroke-linecap="round" stroke-linejoin="round"/>
</svg>
